<svg viewBox="0 0 512 512" xmlns="http://www.w3.org/2000/svg">
  <defs>
    <linearGradient id="bg" x1="0%" y1="0%" x2="100%" y2="100%">
      <stop offset="0%" style="stop-color:#A78BFA"/>
      <stop offset="100%" style="stop-color:#7C3AED"/>
    </linearGradient>
  </defs>
  <!-- Rounded square background -->
  <rect x="0" y="0" width="512" height="512" rx="102" fill="url(#bg)"/>

  <!-- Back card (offset up-left) -->
  <rect x="116" y="106" width="200" height="150" rx="16" fill="white" opacity="0.4"/>

  <!-- Middle card (offset slightly) -->
  <rect x="146" y="136" width="200" height="150" rx="16" fill="white" opacity="0.7"/>

  <!-- Front card -->
  <rect x="176" y="166" width="200" height="150" rx="16" fill="white"/>

  <!-- Sync arrows at bottom right -->
  <g transform="translate(306, 336)">
    <!-- Circular arrow 1 -->
    <path d="M50 10 A40 40 0 0 1 85 60 L75 55 L90 75 L95 50 L85 55 A30 30 0 0 0 55 18 Z" fill="white" opacity="0.9"/>
    <!-- Circular arrow 2 -->
    <path d="M40 80 A40 40 0 0 1 5 30 L15 35 L0 15 L-5 40 L5 35 A30 30 0 0 0 35 72 Z" fill="white" opacity="0.9"/>
  </g>
</svg>
